<mxfile host="app.diagrams.net" modified="2023-08-24T03:07:51.656Z" agent="Mozilla/5.0 (Macintosh; Intel Mac OS X 10_15_7) AppleWebKit/537.36 (KHTML, like Gecko) Chrome/116.0.0.0 Safari/537.36" version="21.6.5" etag="vGR_nPTGNzCzt8vuK43O" type="github">
  <diagram name="Page-1" id="kNPuEdnh6KubsLImNy_3">
    <mxGraphModel>
      <root>
        <mxCell id="0" />
        <mxCell id="1" parent="0" />
      </root>
    </mxGraphModel>
  </diagram>
</mxfile>
